<svg width="65" height="73" viewBox="0 0 65 73" fill="none" xmlns="http://www.w3.org/2000/svg">
<path opacity="0.8" fill-rule="evenodd" clip-rule="evenodd" d="M9.28571 0H0V8.35147V50V68.7952C0 70.3263 0.696428 71.4913 2.08928 72.2903C3.48214 73.092 4.95238 73.2145 6.5 72.6577L29.2631 63.8837C31.3463 63.0807 33.6537 63.0807 35.7369 63.8837L58.5 72.6577C60.0476 73.2145 61.5179 73.092 62.9107 72.2903C64.3036 71.4913 65 70.3263 65 68.7952V50V8.35147V0H55.7143H9.28571Z" fill="#E4323D"/>
<path d="M23.9626 22H16.2186V20.048L19.7226 16.976C20.3199 16.4533 20.7572 15.984 21.0346 15.568C21.3119 15.1413 21.4506 14.6827 21.4506 14.192V13.984C21.4506 13.4933 21.2906 13.12 20.9706 12.864C20.6506 12.5973 20.2612 12.464 19.8026 12.464C19.2266 12.464 18.7892 12.6293 18.4906 12.96C18.1919 13.28 17.9786 13.6693 17.8506 14.128L16.0266 13.424C16.1439 13.0507 16.3092 12.6987 16.5226 12.368C16.7359 12.0267 17.0026 11.728 17.3226 11.472C17.6532 11.216 18.0372 11.0133 18.4746 10.864C18.9119 10.7147 19.4132 10.64 19.9786 10.64C20.5652 10.64 21.0879 10.7253 21.5466 10.896C22.0052 11.056 22.3892 11.2853 22.6986 11.584C23.0186 11.8827 23.2586 12.2347 23.4186 12.64C23.5892 13.0453 23.6746 13.488 23.6746 13.968C23.6746 14.4373 23.5999 14.864 23.4506 15.248C23.3012 15.632 23.0986 16 22.8426 16.352C22.5866 16.6933 22.2879 17.024 21.9466 17.344C21.6052 17.6533 21.2426 17.968 20.8586 18.288L18.5066 20.224H23.9626V22ZM29.6203 22.192C28.9056 22.192 28.287 22.064 27.7643 21.808C27.2416 21.5413 26.8096 21.1627 26.4683 20.672C26.127 20.1813 25.871 19.5787 25.7003 18.864C25.5403 18.1493 25.4603 17.3333 25.4603 16.416C25.4603 15.5093 25.5403 14.6987 25.7003 13.984C25.871 13.2587 26.127 12.6507 26.4683 12.16C26.8096 11.6693 27.2416 11.296 27.7643 11.04C28.287 10.7733 28.9056 10.64 29.6203 10.64C31.039 10.64 32.0843 11.1467 32.7563 12.16C33.439 13.1733 33.7803 14.592 33.7803 16.416C33.7803 18.24 33.439 19.6587 32.7563 20.672C32.0843 21.6853 31.039 22.192 29.6203 22.192ZM29.6203 20.416C30.335 20.416 30.831 20.1493 31.1083 19.616C31.3963 19.072 31.5403 18.3413 31.5403 17.424V15.408C31.5403 14.4907 31.3963 13.7653 31.1083 13.232C30.831 12.688 30.335 12.416 29.6203 12.416C28.9056 12.416 28.4043 12.688 28.1163 13.232C27.839 13.7653 27.7003 14.4907 27.7003 15.408V17.424C27.7003 18.3413 27.839 19.072 28.1163 19.616C28.4043 20.1493 28.9056 20.416 29.6203 20.416ZM37.2941 22L45.0381 10.832H46.8941L39.1501 22H37.2941ZM38.0621 16.976C37.1554 16.976 36.4621 16.7093 35.9821 16.176C35.5127 15.632 35.2781 14.8427 35.2781 13.808C35.2781 12.7733 35.5127 11.9893 35.9821 11.456C36.4621 10.912 37.1554 10.64 38.0621 10.64C38.9687 10.64 39.6567 10.912 40.1261 11.456C40.5954 11.9893 40.8301 12.7733 40.8301 13.808C40.8301 14.8427 40.5954 15.632 40.1261 16.176C39.6567 16.7093 38.9687 16.976 38.0621 16.976ZM38.0621 15.76C38.7234 15.76 39.0541 15.2533 39.0541 14.24V13.376C39.0541 12.3627 38.7234 11.856 38.0621 11.856C37.4007 11.856 37.0701 12.3627 37.0701 13.376V14.24C37.0701 15.2533 37.4007 15.76 38.0621 15.76ZM46.1261 22.192C45.2301 22.192 44.5421 21.9253 44.0621 21.392C43.5927 20.848 43.3581 20.0587 43.3581 19.024C43.3581 17.9893 43.5927 17.2053 44.0621 16.672C44.5421 16.128 45.2301 15.856 46.1261 15.856C47.0327 15.856 47.7207 16.128 48.1901 16.672C48.6701 17.2053 48.9101 17.9893 48.9101 19.024C48.9101 20.0587 48.6701 20.848 48.1901 21.392C47.7207 21.9253 47.0327 22.192 46.1261 22.192ZM46.1261 20.976C46.7874 20.976 47.1181 20.4693 47.1181 19.456V18.592C47.1181 17.5787 46.7874 17.072 46.1261 17.072C45.4647 17.072 45.1341 17.5787 45.1341 18.592V19.456C45.1341 20.4693 45.4647 20.976 46.1261 20.976ZM26.8835 46.192C26.1475 46.192 25.4808 46.0693 24.8835 45.824C24.2862 45.5787 23.7742 45.2107 23.3475 44.72C22.9315 44.2293 22.6062 43.6267 22.3715 42.912C22.1368 42.1973 22.0195 41.3653 22.0195 40.416C22.0195 39.4773 22.1368 38.6507 22.3715 37.936C22.6062 37.2107 22.9315 36.6027 23.3475 36.112C23.7742 35.6213 24.2862 35.2533 24.8835 35.008C25.4808 34.7627 26.1475 34.64 26.8835 34.64C27.6195 34.64 28.2862 34.7627 28.8835 35.008C29.4808 35.2533 29.9928 35.6213 30.4195 36.112C30.8462 36.6027 31.1715 37.2107 31.3955 37.936C31.6302 38.6507 31.7475 39.4773 31.7475 40.416C31.7475 41.3653 31.6302 42.1973 31.3955 42.912C31.1715 43.6267 30.8462 44.2293 30.4195 44.72C29.9928 45.2107 29.4808 45.5787 28.8835 45.824C28.2862 46.0693 27.6195 46.192 26.8835 46.192ZM26.8835 44.32C27.6835 44.32 28.3182 44.0533 28.7875 43.52C29.2675 42.9867 29.5075 42.24 29.5075 41.28V39.552C29.5075 38.592 29.2675 37.8453 28.7875 37.312C28.3182 36.7787 27.6835 36.512 26.8835 36.512C26.0835 36.512 25.4435 36.7787 24.9635 37.312C24.4942 37.8453 24.2595 38.592 24.2595 39.552V41.28C24.2595 42.24 24.4942 42.9867 24.9635 43.52C25.4435 44.0533 26.0835 44.32 26.8835 44.32ZM34.1781 39.264H32.9461V37.648H34.1781V36.448C34.1781 35.712 34.3701 35.1467 34.7541 34.752C35.1488 34.3573 35.7248 34.16 36.4821 34.16H37.9381V35.792H36.2261V37.648H37.9381V39.264H36.2261V46H34.1781V39.264ZM39.8188 39.264H38.5868V37.648H39.8188V36.448C39.8188 35.712 40.0108 35.1467 40.3948 34.752C40.7894 34.3573 41.3654 34.16 42.1228 34.16H43.5788V35.792H41.8668V37.648H43.5788V39.264H41.8668V46H39.8188V39.264Z" fill="white"/>
</svg>
