<svg width="23" height="23" viewBox="0 0 23 23" fill="none" xmlns="http://www.w3.org/2000/svg">
<path d="M6 12H13C13.2833 12 13.521 11.904 13.713 11.712C13.9043 11.5207 14 11.2833 14 11C14 10.7167 13.9043 10.479 13.713 10.287C13.521 10.0957 13.2833 10 13 10H6C5.71667 10 5.479 10.0957 5.287 10.287C5.09567 10.479 5 10.7167 5 11C5 11.2833 5.09567 11.5207 5.287 11.712C5.479 11.904 5.71667 12 6 12ZM6 9H13C13.2833 9 13.521 8.904 13.713 8.712C13.9043 8.52067 14 8.28333 14 8C14 7.71667 13.9043 7.479 13.713 7.287C13.521 7.09567 13.2833 7 13 7H6C5.71667 7 5.479 7.09567 5.287 7.287C5.09567 7.479 5 7.71667 5 8C5 8.28333 5.09567 8.52067 5.287 8.712C5.479 8.904 5.71667 9 6 9ZM3 19C2.45 19 1.97933 18.8043 1.588 18.413C1.196 18.021 1 17.55 1 17V5C1 4.45 1.196 3.97933 1.588 3.588C1.97933 3.196 2.45 3 3 3H19C19.55 3 20.021 3.196 20.413 3.588C20.8043 3.97933 21 4.45 21 5V17C21 17.55 20.8043 18.021 20.413 18.413C20.021 18.8043 19.55 19 19 19H3ZM3 17H19V5H3V17Z" fill="#E4323D"/>
</svg>
