<svg width="23" height="23" viewBox="0 0 23 23" fill="none" xmlns="http://www.w3.org/2000/svg">
<path d="M16.6906 10.2281C16.6906 10.2281 16.9281 11.3906 16.9812 11.6344H15.9375C16.0406 11.3562 16.4375 10.275 16.4375 10.275C16.4312 10.2844 16.5406 9.99062 16.6031 9.80937L16.6906 10.2281ZM20 5.5V16.5C20 17.3281 19.3281 18 18.5 18H3.5C2.67188 18 2 17.3281 2 16.5V5.5C2 4.67188 2.67188 4 3.5 4H18.5C19.3281 4 20 4.67188 20 5.5ZM6.76562 13.35L8.74062 8.5H7.4125L6.18437 11.8125L6.05 11.1406L5.6125 8.90938C5.54062 8.6 5.31875 8.5125 5.04375 8.5H3.02188L3 8.59688C3.49375 8.72188 3.93437 8.90312 4.31875 9.13125L5.4375 13.35H6.76562ZM9.71562 13.3562L10.5031 8.5H9.24687L8.4625 13.3562H9.71562ZM14.0875 11.7688C14.0938 11.2156 13.7563 10.7938 13.0344 10.4469C12.5938 10.225 12.325 10.075 12.325 9.84688C12.3313 9.64062 12.5531 9.42812 13.0469 9.42812C13.4563 9.41875 13.7562 9.51562 13.9812 9.6125L14.0938 9.66563L14.2656 8.61562C14.0188 8.51875 13.625 8.40938 13.1406 8.40938C11.9 8.40938 11.0281 9.07188 11.0219 10.0156C11.0125 10.7125 11.6469 11.1 12.1219 11.3344C12.6062 11.5719 12.7719 11.7281 12.7719 11.9375C12.7656 12.2625 12.3781 12.4125 12.0188 12.4125C11.5188 12.4125 11.25 12.3344 10.8406 12.1531L10.675 12.075L10.5 13.1656C10.7937 13.3 11.3375 13.4187 11.9 13.425C13.2188 13.4281 14.0781 12.775 14.0875 11.7688ZM18.5 13.3562L17.4875 8.5H16.5156C16.2156 8.5 15.9875 8.5875 15.8594 8.90312L13.9937 13.3562H15.3125C15.3125 13.3562 15.5281 12.7563 15.575 12.6281H17.1875C17.225 12.8 17.3375 13.3562 17.3375 13.3562H18.5Z" fill="#E4323D"/>
</svg>
