<svg width="23" height="23" viewBox="0 0 23 23" fill="none" xmlns="http://www.w3.org/2000/svg">
<path d="M7.40054 11.0588C8.35542 11.0588 9.27118 10.687 9.94638 10.0251C10.6216 9.36319 11.0009 8.46547 11.0009 7.52941C11.0009 6.59335 10.6216 5.69563 9.94638 5.03374C9.27118 4.37185 8.35542 4 7.40054 4C6.44567 4 5.5299 4.37185 4.8547 5.03374C4.1795 5.69563 3.80018 6.59335 3.80018 7.52941C3.80018 8.46547 4.1795 9.36319 4.8547 10.0251C5.5299 10.687 6.44567 11.0588 7.40054 11.0588V11.0588ZM15.5014 11.0588C16.2175 11.0588 16.9043 10.7799 17.4107 10.2835C17.9171 9.7871 18.2016 9.11381 18.2016 8.41176C18.2016 7.70972 17.9171 7.03643 17.4107 6.54001C16.9043 6.04359 16.2175 5.76471 15.5014 5.76471C14.7852 5.76471 14.0984 6.04359 13.592 6.54001C13.0856 7.03643 12.8011 7.70972 12.8011 8.41176C12.8011 9.11381 13.0856 9.7871 13.592 10.2835C14.0984 10.7799 14.7852 11.0588 15.5014 11.0588ZM4.25023 12.8235C3.0081 12.8235 2 13.8118 2 15.0294C2 15.0294 2 19 7.40054 19C11.6814 19 12.5689 16.5047 12.7525 15.4706C12.8011 15.2006 12.8011 15.0294 12.8011 15.0294C12.8011 13.8118 11.793 12.8235 10.5509 12.8235H4.25023ZM14.5941 15.6471C14.5733 15.967 14.519 16.2839 14.432 16.5929C14.3186 16.9865 14.1314 17.4576 13.8164 17.9429C14.3687 18.0643 14.9335 18.1229 15.4995 18.1176C20 18.1176 20 15.0294 20 15.0294C20 13.8118 18.9919 12.8235 17.7498 12.8235H13.9172C14.3492 13.4553 14.5995 14.2124 14.5995 15.0294V15.4706L14.5941 15.6471Z" fill="#E4323D"/>
</svg>
