<svg width="23" height="23" viewBox="0 0 23 23" fill="none" xmlns="http://www.w3.org/2000/svg">
<path d="M7.57143 3C8.20357 3 8.71429 3.50273 8.71429 4.125V5.25H13.2857V4.125C13.2857 3.50273 13.7964 3 14.4286 3C15.0607 3 15.5714 3.50273 15.5714 4.125V5.25H17.2857C18.2321 5.25 19 6.00586 19 6.9375V8.625H3V6.9375C3 6.00586 3.76786 5.25 4.71429 5.25H6.42857V4.125C6.42857 3.50273 6.93929 3 7.57143 3ZM3 9.75H19V19.3125C19 20.2441 18.2321 21 17.2857 21H4.71429C3.76786 21 3 20.2441 3 19.3125V9.75ZM5.28571 12.5625V13.6875C5.28571 13.9969 5.54286 14.25 5.85714 14.25H7C7.31429 14.25 7.57143 13.9969 7.57143 13.6875V12.5625C7.57143 12.2531 7.31429 12 7 12H5.85714C5.54286 12 5.28571 12.2531 5.28571 12.5625ZM9.85714 12.5625V13.6875C9.85714 13.9969 10.1143 14.25 10.4286 14.25H11.5714C11.8857 14.25 12.1429 13.9969 12.1429 13.6875V12.5625C12.1429 12.2531 11.8857 12 11.5714 12H10.4286C10.1143 12 9.85714 12.2531 9.85714 12.5625ZM15 12C14.6857 12 14.4286 12.2531 14.4286 12.5625V13.6875C14.4286 13.9969 14.6857 14.25 15 14.25H16.1429C16.4571 14.25 16.7143 13.9969 16.7143 13.6875V12.5625C16.7143 12.2531 16.4571 12 16.1429 12H15ZM5.28571 17.0625V18.1875C5.28571 18.4969 5.54286 18.75 5.85714 18.75H7C7.31429 18.75 7.57143 18.4969 7.57143 18.1875V17.0625C7.57143 16.7531 7.31429 16.5 7 16.5H5.85714C5.54286 16.5 5.28571 16.7531 5.28571 17.0625ZM10.4286 16.5C10.1143 16.5 9.85714 16.7531 9.85714 17.0625V18.1875C9.85714 18.4969 10.1143 18.75 10.4286 18.75H11.5714C11.8857 18.75 12.1429 18.4969 12.1429 18.1875V17.0625C12.1429 16.7531 11.8857 16.5 11.5714 16.5H10.4286ZM14.4286 17.0625V18.1875C14.4286 18.4969 14.6857 18.75 15 18.75H16.1429C16.4571 18.75 16.7143 18.4969 16.7143 18.1875V17.0625C16.7143 16.7531 16.4571 16.5 16.1429 16.5H15C14.6857 16.5 14.4286 16.7531 14.4286 17.0625Z" fill="#E4323D"/>
</svg>
