<svg width="23" height="23" viewBox="0 0 23 23" fill="none" xmlns="http://www.w3.org/2000/svg">
<path d="M16.5985 11.3337C15.996 10.8612 15.0918 10.4837 13.8859 10.2017L12.9608 9.98458V6.05542L13.0861 6.10625C13.8713 6.50167 14.2932 7.25 14.351 8.08333H17.5001C17.4427 6.41667 16.8235 5.18417 15.6423 4.31333C14.8576 3.73458 13.9626 3.3625 12.9608 3.175V1H10.0279V3.10833C8.67161 3.275 7.59606 3.70917 6.80627 4.415C5.7722 5.33917 5.25558 6.49917 5.25558 7.89583C5.25558 9.42625 5.78393 10.5512 6.84062 11.2708C7.43224 11.6788 8.49857 12.0575 10.0279 12.4083V16.665C9.4702 16.5121 9.0332 16.2604 8.72524 15.8967C8.42818 15.5433 8.22916 15.1667 8.12776 14.3333H5C5 16 5.59119 17.1958 6.774 18.1233C7.6279 18.7925 8.71476 19.1992 10.0279 19.3754V21H12.9608V19.4029C14.3573 19.2367 15.4848 18.7933 16.3387 18.0679C17.4461 17.1262 18 15.9429 18 14.5183C18 13.1287 17.5328 12.0675 16.5985 11.3337ZM9.05079 8.91C8.54172 8.635 8.28739 8.2175 8.28739 7.66C8.28739 7.05333 8.54549 6.57792 9.06169 6.23958C9.33403 6.06083 9.65833 5.93083 10.0279 5.845V9.27167C9.57327 9.14 9.24521 9.01917 9.05079 8.91ZM13.4397 16.5796C13.2828 16.6317 13.1229 16.6743 12.9608 16.7071V13.0833C13.4657 13.2321 13.8642 13.3942 14.1541 13.5683C14.6116 13.8504 14.8408 14.2517 14.8408 14.7663C14.8404 15.6479 14.3732 16.255 13.4397 16.5796Z" fill="#E4323D"/>
</svg>
