<svg width="23" height="23" viewBox="0 0 23 23" fill="none" xmlns="http://www.w3.org/2000/svg">
<path d="M19.0001 12C19.255 12.0003 19.5001 12.0979 19.6855 12.2729C19.8708 12.4478 19.9823 12.687 19.9973 12.9414C20.0122 13.1959 19.9294 13.4464 19.7658 13.6418C19.6023 13.8373 19.3702 13.9629 19.1171 13.993L19.0001 14H5.41411L7.70711 16.293C7.88646 16.473 7.99059 16.7144 7.99834 16.9684C8.0061 17.2223 7.9169 17.4697 7.74886 17.6603C7.58083 17.8509 7.34656 17.9703 7.09364 17.9944C6.84072 18.0185 6.5881 17.9454 6.38711 17.79L6.29311 17.707L2.46311 13.877C1.79811 13.213 2.22411 12.094 3.12611 12.006L3.24111 12H19.0001ZM14.2931 2.29301C14.4653 2.12084 14.6944 2.01741 14.9374 2.00212C15.1805 1.98684 15.4207 2.06076 15.6131 2.21001L15.7071 2.29301L19.5371 6.12301C20.2021 6.78701 19.7761 7.90601 18.8741 7.99401L18.7591 8.00001H3.00011C2.74523 7.99973 2.50008 7.90213 2.31474 7.72717C2.12941 7.5522 2.01788 7.31306 2.00294 7.05862C1.988 6.80418 2.07079 6.55363 2.23438 6.35818C2.39797 6.16273 2.63002 6.03712 2.88311 6.00701L3.00011 6.00001H16.5861L14.2931 3.70701C14.1056 3.51949 14.0003 3.26518 14.0003 3.00001C14.0003 2.73485 14.1056 2.48054 14.2931 2.29301Z" fill="#E4323D"/>
</svg>
