<svg width="23" height="23" viewBox="0 0 23 23" fill="none" xmlns="http://www.w3.org/2000/svg">
<path d="M18 12.9V19.2C18 19.6774 17.8156 20.1352 17.4874 20.4728C17.1592 20.8104 16.7141 21 16.25 21C15.7859 21 15.3408 20.8104 15.0126 20.4728C14.6844 20.1352 14.5 19.6774 14.5 19.2V14.7H12.75V5.7C12.75 4.98392 13.0266 4.29716 13.5188 3.79081C14.0111 3.28446 14.6788 3 15.375 3H18V12.9ZM5.75 12C5.28587 12 4.84075 11.8104 4.51256 11.4728C4.18437 11.1352 4 10.6774 4 10.2V3.9C4 3.66131 4.09219 3.43239 4.25628 3.2636C4.42038 3.09482 4.64294 3 4.875 3C5.10706 3 5.32962 3.09482 5.49372 3.2636C5.65781 3.43239 5.75 3.66131 5.75 3.9V7.5H6.625V3.9C6.625 3.66131 6.71719 3.43239 6.88128 3.2636C7.04538 3.09482 7.26794 3 7.5 3C7.73206 3 7.95462 3.09482 8.11872 3.2636C8.28281 3.43239 8.375 3.66131 8.375 3.9V7.5H9.25V3.9C9.25 3.66131 9.34219 3.43239 9.50628 3.2636C9.67038 3.09482 9.89294 3 10.125 3C10.3571 3 10.5796 3.09482 10.7437 3.2636C10.9078 3.43239 11 3.66131 11 3.9V10.2C11 10.6774 10.8156 11.1352 10.4874 11.4728C10.1592 11.8104 9.71413 12 9.25 12V19.2C9.25 19.6774 9.06563 20.1352 8.73744 20.4728C8.40925 20.8104 7.96413 21 7.5 21C7.03587 21 6.59075 20.8104 6.26256 20.4728C5.93437 20.1352 5.75 19.6774 5.75 19.2V12Z" fill="#E4323D"/>
</svg>
