<svg width="23" height="23" viewBox="0 0 23 23" fill="none" xmlns="http://www.w3.org/2000/svg">
<path fill-rule="evenodd" clip-rule="evenodd" d="M18 3.989V5C18.5304 5 19.0391 5.21071 19.4142 5.58579C19.7893 5.96086 20 6.46957 20 7V17C20 17.5304 19.7893 18.0391 19.4142 18.4142C19.0391 18.7893 18.5304 19 18 19H4C3.46957 19 2.96086 18.7893 2.58579 18.4142C2.21071 18.0391 2 17.5304 2 17V7C2 5.955 2.835 5.007 3.813 4.728L14.813 1.585C15.1851 1.47866 15.5768 1.46015 15.9573 1.53093C16.3377 1.60171 16.6966 1.75985 17.0055 1.9929C17.3145 2.22594 17.5651 2.52753 17.7377 2.87391C17.9102 3.22029 18 3.60201 18 3.989ZM14.5 10.5C14.1022 10.5 13.7206 10.658 13.4393 10.9393C13.158 11.2206 13 11.6022 13 12C13 12.3978 13.158 12.7794 13.4393 13.0607C13.7206 13.342 14.1022 13.5 14.5 13.5C14.8978 13.5 15.2794 13.342 15.5607 13.0607C15.842 12.7794 16 12.3978 16 12C16 11.6022 15.842 11.2206 15.5607 10.9393C15.2794 10.658 14.8978 10.5 14.5 10.5ZM16 3.989C16.0001 3.91841 15.9852 3.84861 15.9563 3.7842C15.9274 3.71978 15.8853 3.6622 15.8326 3.61525C15.7798 3.5683 15.7178 3.53305 15.6505 3.51181C15.5832 3.49056 15.5121 3.48381 15.442 3.492L15.362 3.508L10.14 5H16V3.989Z" fill="#E4323D"/>
</svg>
