<svg width="23" height="23" viewBox="0 0 23 23" fill="none" xmlns="http://www.w3.org/2000/svg">
<path d="M13.9859 19.368L6.25243 11.6575C6.16064 11.5657 6.09577 11.4663 6.05783 11.3592C6.01928 11.2521 6 11.1374 6 11.015C6 10.8926 6.01928 10.7779 6.05783 10.6708C6.09577 10.5637 6.16064 10.4642 6.25243 10.3724L13.9859 2.639C14.2 2.42482 14.4678 2.31773 14.789 2.31773C15.1103 2.31773 15.3857 2.43247 15.6152 2.66195C15.8446 2.89143 15.9594 3.15916 15.9594 3.46513C15.9594 3.7711 15.8446 4.03882 15.6152 4.2683L8.86849 11.015L15.6152 17.7617C15.8293 17.9758 15.9364 18.2396 15.9364 18.5529C15.9364 18.8668 15.8217 19.1385 15.5922 19.368C15.3627 19.5975 15.095 19.7122 14.789 19.7122C14.4831 19.7122 14.2153 19.5975 13.9859 19.368Z" fill="#E4323D"/>
</svg>
