<svg width="131" height="23" viewBox="0 0 131 23" fill="none" xmlns="http://www.w3.org/2000/svg">
<path d="M11.0031 15.9153L15.1546 18.4262C15.9149 18.8863 16.8452 18.2061 16.6451 17.3458L15.5447 12.6241L19.216 9.44296C19.8863 8.86275 19.5261 7.76236 18.6458 7.69234L13.8141 7.28219L11.9234 2.82061C11.5833 2.01032 10.4229 2.01032 10.0828 2.82061L8.19212 7.27219L3.3604 7.68233C2.48009 7.75236 2.11996 8.85275 2.7902 9.43296L6.4615 12.6141L5.36111 17.3358C5.16104 18.1961 6.09137 18.8763 6.85164 18.4162L11.0031 15.9153Z" fill="#E49232"/>
<path d="M38.0331 15.9153L42.1846 18.4262C42.9449 18.8863 43.8752 18.2061 43.6751 17.3458L42.5748 12.6241L46.2461 9.44296C46.9163 8.86275 46.5562 7.76236 45.6759 7.69234L40.8441 7.28219L38.9535 2.82061C38.6134 2.01032 37.4529 2.01032 37.1128 2.82061L35.2221 7.27219L30.3904 7.68233C29.5101 7.75236 29.15 8.85275 29.8202 9.43296L33.4915 12.6141L32.3911 17.3358C32.1911 18.1961 33.1214 18.8763 33.8817 18.4162L38.0331 15.9153Z" fill="#E49232"/>
<path d="M65.0629 15.9153L69.2144 18.4262C69.9747 18.8863 70.905 18.2061 70.7049 17.3458L69.6045 12.6241L73.2758 9.44296C73.9461 8.86275 73.586 7.76236 72.7056 7.69234L67.8739 7.28219L65.9833 2.82061C65.6431 2.01032 64.4827 2.01032 64.1426 2.82061L62.2519 7.27219L57.4202 7.68233C56.5399 7.75236 56.1798 8.85275 56.85 9.43296L60.5213 12.6141L59.4209 17.3358C59.2209 18.1961 60.1512 18.8763 60.9115 18.4162L65.0629 15.9153Z" fill="#E49232"/>
<path d="M99.7399 7.65041L94.8999 7.23041L93.0099 2.78041C92.6699 1.97041 91.5099 1.97041 91.1699 2.78041L89.2799 7.24041L84.4499 7.65041C83.5699 7.72041 83.2099 8.82041 83.8799 9.40041L87.5499 12.5804L86.4499 17.3004C86.2499 18.1604 87.1799 18.8404 87.9399 18.3804L92.0899 15.8804L96.2399 18.3904C96.9999 18.8504 97.9299 18.1704 97.7299 17.3104L96.6299 12.5804L100.3 9.40041C100.97 8.82041 100.62 7.72041 99.7399 7.65041ZM92.0899 14.0104V4.71041L93.7999 8.75041L98.1799 9.13041L94.8599 12.0104L95.8599 16.2904L92.0899 14.0104Z" fill="#E49232"/>
<path d="M126.77 8.71035L121.93 8.29035L120.04 3.84035C119.7 3.03035 118.54 3.03035 118.2 3.84035L116.31 8.30035L111.48 8.71035C110.6 8.78035 110.24 9.88035 110.91 10.4603L114.58 13.6403L113.48 18.3603C113.28 19.2203 114.21 19.9003 114.97 19.4403L119.12 16.9403L123.27 19.4503C124.03 19.9103 124.96 19.2303 124.76 18.3703L123.66 13.6403L127.33 10.4603C128 9.88035 127.65 8.78035 126.77 8.71035ZM119.12 15.0703L115.36 17.3403L116.36 13.0603L113.04 10.1803L117.42 9.80035L119.12 5.77035L120.83 9.81035L125.21 10.1903L121.89 13.0703L122.89 17.3503L119.12 15.0703Z" fill="#E49232"/>
</svg>
