<svg width="131" height="23" viewBox="0 0 131 23" fill="none" xmlns="http://www.w3.org/2000/svg">
<path d="M19.4404 9.19533L14.6004 8.77533L12.7104 4.32533C12.3704 3.51533 11.2104 3.51533 10.8704 4.32533L8.98036 8.78533L4.15036 9.19533C3.27036 9.26533 2.91036 10.3653 3.58036 10.9453L7.25036 14.1253L6.15036 18.8453C5.95036 19.7053 6.88036 20.3853 7.64036 19.9253L11.7904 17.4253L15.9404 19.9353C16.7004 20.3953 17.6304 19.7153 17.4304 18.8553L16.3304 14.1253L20.0004 10.9453C20.6704 10.3653 20.3204 9.26533 19.4404 9.19533ZM11.7904 15.5553L8.03036 17.8253L9.03036 13.5453L5.71036 10.6653L10.0904 10.2853L11.7904 6.25533L13.5004 10.2953L17.8804 10.6753L14.5604 13.5553L15.5604 17.8353L11.7904 15.5553Z" fill="#E49232"/>
<path d="M46.4704 9.19533L41.6304 8.77533L39.7404 4.32533C39.4004 3.51533 38.2404 3.51533 37.9004 4.32533L36.0104 8.78533L31.1804 9.19533C30.3004 9.26533 29.9404 10.3653 30.6104 10.9453L34.2804 14.1253L33.1804 18.8453C32.9804 19.7053 33.9104 20.3853 34.6704 19.9253L38.8204 17.4253L42.9704 19.9353C43.7304 20.3953 44.6604 19.7153 44.4604 18.8553L43.3604 14.1253L47.0304 10.9453C47.7004 10.3653 47.3504 9.26533 46.4704 9.19533ZM38.8204 15.5553L35.0604 17.8253L36.0604 13.5453L32.7404 10.6653L37.1204 10.2853L38.8204 6.25533L40.5304 10.2953L44.9104 10.6753L41.5904 13.5553L42.5904 17.8353L38.8204 15.5553Z" fill="#E49232"/>
<path d="M73.5002 9.19533L68.6602 8.77533L66.7702 4.32533C66.4302 3.51533 65.2702 3.51533 64.9302 4.32533L63.0402 8.78533L58.2102 9.19533C57.3302 9.26533 56.9702 10.3653 57.6402 10.9453L61.3102 14.1253L60.2102 18.8453C60.0102 19.7053 60.9402 20.3853 61.7002 19.9253L65.8502 17.4253L70.0002 19.9353C70.7602 20.3953 71.6902 19.7153 71.4902 18.8553L70.3902 14.1253L74.0602 10.9453C74.7302 10.3653 74.3802 9.26533 73.5002 9.19533ZM65.8502 15.5553L62.0902 17.8253L63.0902 13.5453L59.7702 10.6653L64.1502 10.2853L65.8502 6.25533L67.5602 10.2953L71.9402 10.6753L68.6202 13.5553L69.6202 17.8353L65.8502 15.5553Z" fill="#E49232"/>
<path d="M100.53 9.19533L95.6902 8.77533L93.8002 4.32533C93.4602 3.51533 92.3002 3.51533 91.9602 4.32533L90.0702 8.78533L85.2402 9.19533C84.3602 9.26533 84.0002 10.3653 84.6702 10.9453L88.3402 14.1253L87.2402 18.8453C87.0402 19.7053 87.9702 20.3853 88.7302 19.9253L92.8802 17.4253L97.0302 19.9353C97.7902 20.3953 98.7202 19.7153 98.5202 18.8553L97.4202 14.1253L101.09 10.9453C101.76 10.3653 101.41 9.26533 100.53 9.19533ZM92.8802 15.5553L89.1202 17.8253L90.1202 13.5453L86.8002 10.6653L91.1802 10.2853L92.8802 6.25533L94.5902 10.2953L98.9702 10.6753L95.6502 13.5553L96.6502 17.8353L92.8802 15.5553Z" fill="#E49232"/>
<path d="M127.56 9.19533L122.72 8.77533L120.83 4.32533C120.49 3.51533 119.33 3.51533 118.99 4.32533L117.1 8.78533L112.27 9.19533C111.39 9.26533 111.03 10.3653 111.7 10.9453L115.37 14.1253L114.27 18.8453C114.07 19.7053 115 20.3853 115.76 19.9253L119.91 17.4253L124.06 19.9353C124.82 20.3953 125.75 19.7153 125.55 18.8553L124.45 14.1253L128.12 10.9453C128.79 10.3653 128.44 9.26533 127.56 9.19533ZM119.91 15.5553L116.15 17.8253L117.15 13.5453L113.83 10.6653L118.21 10.2853L119.91 6.25533L121.62 10.2953L126 10.6753L122.68 13.5553L123.68 17.8353L119.91 15.5553Z" fill="#E49232"/>
</svg>
