<svg width="19" height="11" viewBox="0 0 19 11" fill="none" xmlns="http://www.w3.org/2000/svg">
<path d="M17.7931 2.02912L10.0826 9.76256C9.99079 9.85435 9.89135 9.91921 9.78426 9.95716C9.67717 9.99571 9.56243 10.015 9.44005 10.015C9.31766 10.015 9.20292 9.99571 9.09583 9.95716C8.98874 9.91921 8.8893 9.85435 8.7975 9.76256L1.06407 2.02912C0.849888 1.81494 0.742797 1.54722 0.742797 1.22595C0.742797 0.904675 0.857537 0.629301 1.08702 0.399822C1.31649 0.170343 1.58422 0.0556039 1.89019 0.0556039C2.19616 0.0556039 2.46389 0.170343 2.69337 0.399822L9.44005 7.1465L16.1867 0.399822C16.4009 0.185642 16.6647 0.0785506 16.978 0.0785506C17.2919 0.0785506 17.5636 0.19329 17.7931 0.422769C18.0226 0.652248 18.1373 0.919973 18.1373 1.22594C18.1373 1.53192 18.0226 1.79964 17.7931 2.02912Z" fill="#E4323D"/>
</svg>
