<svg width="36" height="48" viewBox="0 0 36 48" fill="none" xmlns="http://www.w3.org/2000/svg">
<g filter="url(#filter0_d_357_463)">
<g clip-path="url(#clip0_357_463)">
<path d="M28.4348 6.10393C28.2188 5.92114 27.9565 5.80357 27.6777 5.76466C27.399 5.72574 27.1151 5.76704 26.8584 5.88383L22.0818 8.03695L19.3065 2.96516C19.1739 2.72838 18.9817 2.53146 18.7495 2.39447C18.5174 2.25747 18.2536 2.1853 17.9849 2.1853C17.7163 2.1853 17.4525 2.25747 17.2204 2.39447C16.9882 2.53146 16.796 2.72838 16.6634 2.96516L13.8881 8.03695L9.11151 5.88383C8.85428 5.76721 8.57 5.72586 8.2908 5.76445C8.0116 5.80305 7.74862 5.92005 7.53158 6.10224C7.31455 6.28442 7.15212 6.52452 7.06265 6.79539C6.97318 7.06626 6.96025 7.3571 7.02531 7.63503L9.42302 17.9987C9.46887 18.1993 9.55442 18.3885 9.6745 18.5546C9.79457 18.7207 9.94667 18.8604 10.1216 18.9652C10.3584 19.1089 10.6291 19.1849 10.9051 19.1853C11.0392 19.185 11.1727 19.1657 11.3015 19.1279C15.672 17.903 20.2884 17.903 24.6589 19.1279C25.058 19.2342 25.4823 19.1757 25.8389 18.9652C26.0149 18.8618 26.1678 18.7225 26.288 18.5561C26.4082 18.3898 26.4932 18.2 26.5374 17.9987L28.9446 7.63503C29.0089 7.35702 28.9953 7.06632 28.9052 6.79576C28.8151 6.5252 28.6522 6.28556 28.4348 6.10393ZM21.7609 14.6207C21.7401 14.8094 21.6517 14.9837 21.5125 15.1107C21.3733 15.2377 21.193 15.3085 21.0057 15.3097H20.9302C18.9717 15.1087 16.9982 15.1087 15.0397 15.3097C14.8407 15.3311 14.6414 15.2716 14.4857 15.1442C14.3299 15.0168 14.2304 14.832 14.209 14.6303C14.1905 14.4275 14.2514 14.2256 14.3786 14.068C14.5058 13.9104 14.689 13.8099 14.8887 13.7882C16.9471 13.5681 19.0227 13.5681 21.0812 13.7882C21.2791 13.8099 21.4608 13.9091 21.5878 14.0646C21.7147 14.22 21.7768 14.4195 21.7609 14.6207Z" fill="#E49232"/>
</g>
<path d="M8.29414 39.5149L4.64614 28.3469H6.80614L8.51814 33.7869L9.51014 37.4989H9.55814L10.5341 33.7869L12.2461 28.3469H14.3421L10.6941 39.5149H8.29414ZM15.4413 39.5149V37.8189H16.9133V30.0429H15.4413V28.3469H20.5133V30.0429H19.0253V37.8189H20.5133V39.5149H15.4413ZM22.6709 39.5149V28.3469H27.6949C28.2069 28.3469 28.6656 28.4322 29.0709 28.6029C29.4869 28.7629 29.8389 28.9976 30.1269 29.3069C30.4149 29.6056 30.6336 29.9682 30.7829 30.3949C30.9322 30.8216 31.0069 31.2909 31.0069 31.8029C31.0069 32.3256 30.9322 32.8002 30.7829 33.2269C30.6336 33.6429 30.4149 34.0056 30.1269 34.3149C29.8389 34.6136 29.4869 34.8482 29.0709 35.0189C28.6656 35.1789 28.2069 35.2589 27.6949 35.2589H24.7829V39.5149H22.6709ZM24.7829 33.4349H27.5029C27.9082 33.4349 28.2282 33.3282 28.4629 33.1149C28.6976 32.8909 28.8149 32.5762 28.8149 32.1709V31.4349C28.8149 31.0296 28.6976 30.7202 28.4629 30.5069C28.2282 30.2936 27.9082 30.1869 27.5029 30.1869H24.7829V33.4349Z" fill="#E49232"/>
</g>
<defs>
<filter id="filter0_d_357_463" x="-0.000488281" y="0.484985" width="36" height="54.0299" filterUnits="userSpaceOnUse" color-interpolation-filters="sRGB">
<feFlood flood-opacity="0" result="BackgroundImageFix"/>
<feColorMatrix in="SourceAlpha" type="matrix" values="0 0 0 0 0 0 0 0 0 0 0 0 0 0 0 0 0 0 127 0" result="hardAlpha"/>
<feOffset dy="4"/>
<feGaussianBlur stdDeviation="2"/>
<feComposite in2="hardAlpha" operator="out"/>
<feColorMatrix type="matrix" values="0 0 0 0 0 0 0 0 0 0 0 0 0 0 0 0 0 0 0.25 0"/>
<feBlend mode="normal" in2="BackgroundImageFix" result="effect1_dropShadow_357_463"/>
<feBlend mode="normal" in="SourceGraphic" in2="effect1_dropShadow_357_463" result="shape"/>
</filter>
<clipPath id="clip0_357_463">
<rect width="22.03" height="22.03" fill="white" transform="translate(6.9845 0.484985)"/>
</clipPath>
</defs>
</svg>
