<svg width="28" height="47" viewBox="0 0 28 47" fill="none" xmlns="http://www.w3.org/2000/svg">
<g clip-path="url(#clip0_229_2751)">
<path d="M24.4353 5.61894C24.2193 5.43615 23.957 5.31859 23.6782 5.27967C23.3995 5.24076 23.1156 5.28205 22.8589 5.39885L18.0823 7.55196L15.307 2.48018C15.1744 2.24339 14.9822 2.04647 14.75 1.90948C14.5179 1.77249 14.2541 1.70032 13.9854 1.70032C13.7168 1.70032 13.453 1.77249 13.2208 1.90948C12.9887 2.04647 12.7965 2.24339 12.6639 2.48018L9.88855 7.55196L5.112 5.39885C4.85477 5.28222 4.57048 5.24087 4.29129 5.27947C4.01209 5.31806 3.7491 5.43507 3.53207 5.61725C3.31504 5.79943 3.1526 6.03953 3.06314 6.3104C2.97367 6.58127 2.96073 6.87211 3.0258 7.15005L5.42351 17.5137C5.46936 17.7144 5.55491 17.9035 5.67499 18.0696C5.79506 18.2357 5.94716 18.3754 6.12206 18.4802C6.35885 18.6239 6.62959 18.7 6.90556 18.7003C7.03972 18.7001 7.17318 18.6807 7.30204 18.6429C11.6725 17.418 16.2889 17.418 20.6594 18.6429C21.0584 18.7493 21.4828 18.6907 21.8394 18.4802C22.0153 18.3768 22.1683 18.2375 22.2885 18.0711C22.4087 17.9048 22.4936 17.715 22.5379 17.5137L24.9451 7.15005C25.0094 6.87204 24.9958 6.58133 24.9057 6.31077C24.8156 6.04021 24.6527 5.80058 24.4353 5.61894ZM17.7614 14.1357C17.7406 14.3244 17.6522 14.4987 17.513 14.6257C17.3738 14.7527 17.1934 14.8235 17.0062 14.8247H16.9307C14.9722 14.6237 12.9987 14.6237 11.0402 14.8247C10.8412 14.8462 10.6419 14.7867 10.4862 14.6593C10.3304 14.5319 10.2309 14.347 10.2095 14.1453C10.191 13.9426 10.2519 13.7406 10.3791 13.583C10.5063 13.4255 10.6895 13.3249 10.8892 13.3032C12.9476 13.0831 15.0232 13.0831 17.0817 13.3032C17.2796 13.325 17.4613 13.4241 17.5882 13.5796C17.7152 13.735 17.7773 13.9346 17.7614 14.1357Z" fill="white"/>
</g>
<path d="M4.29463 39.03L0.646625 27.862H2.80663L4.51863 33.302L5.51063 37.014H5.55863L6.53463 33.302L8.24663 27.862H10.3426L6.69463 39.03H4.29463ZM11.4418 39.03V37.334H12.9138V29.558H11.4418V27.862H16.5138V29.558H15.0258V37.334H16.5138V39.03H11.4418ZM18.6714 39.03V27.862H23.6954C24.2074 27.862 24.666 27.9473 25.0714 28.118C25.4874 28.278 25.8394 28.5126 26.1274 28.822C26.4154 29.1206 26.634 29.4833 26.7834 29.91C26.9327 30.3366 27.0074 30.806 27.0074 31.318C27.0074 31.8406 26.9327 32.3153 26.7834 32.742C26.634 33.158 26.4154 33.5206 26.1274 33.83C25.8394 34.1286 25.4874 34.3633 25.0714 34.534C24.666 34.694 24.2074 34.774 23.6954 34.774H20.7834V39.03H18.6714ZM20.7834 32.95H23.5034C23.9087 32.95 24.2287 32.8433 24.4634 32.63C24.698 32.406 24.8154 32.0913 24.8154 31.686V30.95C24.8154 30.5446 24.698 30.2353 24.4634 30.022C24.2287 29.8086 23.9087 29.702 23.5034 29.702H20.7834V32.95Z" fill="white"/>
<defs>
<clipPath id="clip0_229_2751">
<rect width="22.03" height="22.03" fill="white" transform="translate(2.98499)"/>
</clipPath>
</defs>
</svg>
